PathFileType	4	(X/Y/Z)	C:\Users\WrightLab\Desktop\Jo\P4V116.trc
DataRate	CameraRate	NumFrames	NumMarkers	Units	OrigDataRate	OrigDataStartFrame	OrigNumFrames
100.00	100.00	       16	19	mm	100.00	66	       525
Frame#	Time	Headset_Front			Headset_Back			Headset_Left			Headset_Right			Left_Shoulder			Right_Shoulder			Sternum			C7			Left Elbow			Right Elbow			Left Wrist			Right Wrist			Left ASIS			Right ASIS			S2			Left Knee			Right Knee			Left Ankle			Right Ankle			
		X1	Y1	Z1	X2	Y2	Z2	X3	Y3	Z3	X4	Y4	Z4	X5	Y5	Z5	X6	Y6	Z6	X7	Y7	Z7	X8	Y8	Z8	X9	Y9	Z9	X10	Y10	Z10	X11	Y11	Z11	X12	Y12	Z12	X13	Y13	Z13	X14	Y14	Z14	X15	Y15	Z15	X16	Y16	Z16	X17	Y17	Z17	X18	Y18	Z18	X19	Y19	Z19	

66	0.650	-536.52307	1674.82239	-1013.43396	-419.91855	1750.05530	-1202.05627							-401.16010	1534.22253	-1184.95691	-557.08020	1493.06018	-1209.11694	-459.23352	1419.33704	-1041.29041				-152.55315	1151.75903	-1010.15643	-680.38312	1144.37268	-1287.09424	-238.66061	874.64435	-892.33649	-725.48944	873.65747	-1152.26880	-294.76620	989.46655	-1034.49084	-583.17639	1013.51569	-1196.89026				-302.33218	517.31335	-953.04529	-599.44592	529.07996	-1197.18372	-161.51567	193.14984	-1317.40308				
67	0.660	-541.55383	1676.07214	-1005.33014	-425.66287	1751.24597	-1194.38086							-406.94720	1535.56934	-1177.74670	-562.63214	1494.65417	-1201.78528	-463.06281	1419.78333	-1034.34985				-157.57082	1153.16650	-1005.17426	-688.11621	1146.66650	-1278.92004	-242.37459	875.03497	-888.38727	-731.48547	877.78027	-1138.45923	-300.62439	992.73523	-1023.99860	-587.77594	1013.65179	-1189.57947				-316.94525	520.79950	-938.89069	-600.34949	528.81097	-1195.57483	-180.22322	186.80344	-1298.00854				
68	0.670	-546.36389	1677.13672	-997.31433	-431.17010	1752.47327	-1186.36890							-412.62170	1536.69775	-1170.83398	-568.19922	1495.98792	-1193.55823	-468.87833	1421.07483	-1026.97803				-162.08075	1154.12744	-999.13177	-695.62500	1148.79395	-1271.05139	-246.60648	876.23657	-884.75305	-738.70123	882.79840	-1125.24121	-306.05804	993.90900	-1015.74365	-592.45850	1013.44232	-1181.81689				-328.50906	526.47345	-926.04254	-601.19971	528.54309	-1194.56067	-197.84059	179.49722	-1277.53101				
69	0.680	-551.03131	1677.84460	-988.95660	-436.56326	1753.57910	-1178.76807							-418.08994	1537.67065	-1163.66138	-573.68829	1497.17126	-1186.06653	-474.42468	1422.58081	-1019.94489				-166.33391	1155.00586	-994.41675	-702.98016	1150.73572	-1262.67590	-250.38965	876.34399	-880.32178	-744.78833	887.57397	-1112.24133	-310.93097	995.08026	-1009.98633	-597.43835	1013.49982	-1178.49036				-340.55014	531.25201	-912.93304	-602.22247	528.00220	-1192.30103	-216.59102	172.34189	-1257.39709				
70	0.690	-555.56036	1678.34680	-980.82428	-441.80234	1754.46960	-1170.47803							-423.49963	1538.47498	-1156.34473	-579.07410	1498.31567	-1178.62573	-479.31494	1423.87622	-1012.20300				-170.96992	1155.81128	-989.36365	-710.28339	1152.35010	-1254.68726	-253.85350	876.82782	-877.07654	-752.69867	892.65796	-1099.07593	-316.55341	997.46924	-1003.69739	-601.41138	1014.06488	-1173.22644				-352.57626	535.53540	-901.08136	-603.37189	527.58807	-1191.01355	-235.86806	163.47816	-1236.12756				
71	0.700	-559.93243	1678.71899	-972.72009	-446.94910	1755.15662	-1162.63428							-428.82260	1539.07751	-1148.68542	-584.38574	1499.21582	-1170.84167	-483.77917	1423.34106	-1004.71033				-174.89510	1156.89697	-985.22620	-717.42865	1154.22314	-1246.08582	-257.10770	876.16968	-872.41296	-758.25336	896.45953	-1085.02771	-321.41882	999.52985	-995.61633	-606.42780	1015.26221	-1170.09692				-362.83823	539.92163	-889.84375	-604.46436	527.20459	-1188.68518	-255.13963	155.88881	-1212.37207				
72	0.710	-564.16058	1678.88599	-964.25006	-451.84369	1755.88586	-1155.01392										-589.70856	1499.70764	-1162.43750	-488.29239	1424.38147	-998.49420				-178.67262	1156.51001	-978.56250	-724.21899	1154.77380	-1237.30518	-260.63928	875.87524	-867.91852	-764.05914	901.06238	-1071.28613	-326.46899	1000.53949	-987.11591	-610.83093	1014.88336	-1163.20251				-374.08273	544.05273	-877.97900	-605.50800	526.89307	-1186.62427	-277.34369	146.01860	-1191.15320				
73	0.720	-568.12653	1679.66455	-956.28876	-456.55957	1756.15747	-1146.90063							-439.21863	1539.84363	-1133.76453	-594.84845	1500.47656	-1154.65393	-492.76074	1423.70642	-990.43890				-182.78531	1156.81787	-975.55621	-730.76685	1155.90369	-1228.79578	-263.56638	875.30566	-864.26086	-771.21637	905.05664	-1058.14734	-331.91833	1000.48169	-979.82971	-615.60297	1013.48059	-1154.05615				-384.18445	547.62103	-867.22589	-606.56061	526.86432	-1183.95557	-296.34460	137.44078	-1169.22742				
74	0.730	-572.10229	1679.65479	-947.48236	-461.25134	1756.14771	-1138.73755							-444.19687	1540.06543	-1125.58960	-600.05145	1500.57605	-1146.08386	-498.08069	1424.20471	-983.20795				-186.26431	1156.08606	-969.03546	-737.49854	1156.20728	-1219.49365	-266.13998	874.67834	-859.82416	-776.92426	908.97821	-1043.64856	-336.42651	1001.88611	-974.94043	-620.43384	1014.30634	-1150.19775				-394.13275	550.92578	-856.16449	-607.80103	526.69476	-1181.22314	-317.90146	127.90165	-1145.76514				
75	0.740	-575.71344	1679.98621	-939.22534	-465.73288	1756.02734	-1131.11487							-449.14084	1540.06042	-1118.28333	-605.10468	1500.62708	-1137.81689	-501.98438	1424.05688	-974.67242				-189.93134	1156.44836	-965.02814	-744.14917	1157.55847	-1210.61572	-268.55643	873.51111	-855.25311	-782.68933	913.26630	-1030.11560	-341.22879	1001.73035	-965.79462	-624.62366	1014.60181	-1144.43054				-402.06219	553.87323	-846.47937	-609.24670	526.40692	-1178.48767	-338.40625	118.59086	-1120.91711				
76	0.750	-579.29437	1679.89014	-930.65967	-470.05304	1755.75378	-1123.00049							-454.07187	1539.75513	-1110.58887	-609.99664	1500.84509	-1129.14368	-506.27991	1423.25061	-966.10608				-193.51555	1155.95374	-958.82874	-750.07025	1157.14966	-1200.91772	-270.08792	873.47083	-849.95215	-788.39252	916.83246	-1016.47302	-346.73804	1001.94824	-958.58325	-629.60321	1012.49805	-1133.66589				-410.14590	557.27545	-836.60614	-610.81256	525.92041	-1174.78296	-358.96094	109.34309	-1095.57849				
77	0.760	-582.80194	1679.65881	-922.26154	-474.31726	1755.14648	-1114.94263							-458.68066	1539.61157	-1102.62476	-614.94263	1500.27869	-1120.44214	-511.21704	1423.37976	-958.71069				-196.80881	1155.10840	-953.33301	-756.21118	1158.12195	-1191.30408	-272.72403	872.56946	-845.68274	-793.23413	920.05518	-1002.00061	-351.54745	1001.51160	-952.38324							-418.71414	558.36139	-827.83661	-613.01593	525.57489	-1171.60938	-378.45947	100.51795	-1072.08337				
78	0.770	-586.06519	1679.44934	-913.40314	-478.37323	1754.63171	-1107.35181							-463.34094	1538.99365	-1094.14441	-619.65588	1499.99280	-1111.56995	-515.50677	1422.66211	-951.00562				-200.21967	1154.71289	-949.34070	-762.69232	1157.94275	-1181.17285	-275.26157	870.94037	-841.64795	-797.91870	923.58203	-988.31409	-355.99271	1001.47418	-944.97827	-638.82605	1013.19965	-1122.49939				-425.35800	560.22302	-818.55945	-615.30524	525.19989	-1166.95801	-398.34070	92.46043	-1045.60327				
79	0.780	-589.21747	1679.06970	-904.30853	-482.33807	1754.03088	-1099.23950							-467.84375	1538.51587	-1086.36475	-624.35260	1499.58679	-1102.83081	-518.00616	1421.73621	-942.21191				-203.40753	1153.49768	-943.74713	-767.74139	1157.87134	-1170.62073	-277.73779	869.73108	-836.48138	-803.70660	927.58472	-974.18237	-360.71414	1000.82031	-938.07446							-433.26556	560.90375	-810.01971	-617.72095	524.65875	-1162.72083	-418.66846	83.76524	-1018.25372				
80	0.790	-649.02155	1011.46313	-1105.63574	-486.25253	1752.99597	-1090.48608							-472.23285	1537.93188	-1078.78772	-628.85883	1499.05359	-1094.09338	-522.15729	1420.78345	-934.06183				-206.78023	1152.38562	-937.88959	-773.52075	1157.22241	-1160.49536	-279.08008	868.34180	-831.37787	-808.58038	929.99622	-959.19617	-365.55997	1000.31653	-930.14423							-438.02130	561.90033	-801.70032	-620.10217	523.57532	-1158.09937	-440.78644	74.43127	-992.33917				
81	0.800	-595.23950	1677.79126	-886.48291	-489.96918	1752.07568	-1082.34277							-476.49249	1537.17444	-1070.52271	-633.22083	1498.44214	-1084.81165	-524.19055	1419.39978	-925.94025				-210.21506	1151.12781	-932.24957	-778.21399	1156.34338	-1149.27856	-281.05795	866.86646	-826.66034	-812.69055	931.84216	-945.24445	-370.00552	998.71490	-922.26746							-443.00571	561.66315	-793.64575	-622.55444	523.26404	-1152.88477	-458.32205	67.35763	-965.40210				
